# xmcd CD database file
#
# Track frame offsets:
#	150
#	13456
#	29045
#	40541
#	56909
#	69369
#	84376
#	96738
#	110699
#	122024
#	136423
#	149587
#	166222
#	178126
#	191100
#	204750
#
# Disc length: 2940 seconds
#
# Revision: 0
# Processed by: cddbd v1.5.2PL0 Copyright (c) Steve Scherf et al.
# Submitted via: CDex 1.51
#
DISCID=f20b7a10
DTITLE=Frank Sinatra - In The Wee Small Hours and Our Town
DYEAR=2007
DGENRE=Jazz
TTITLE0=In The Wee Small Hours Of The Morning
TTITLE1=Mood Indigo
TTITLE2=Glad To Be Unhappy
TTITLE3=I Get Along Without You Very Well
TTITLE4=Deep In A Dream
TTITLE5=I See Your Face Before Me
TTITLE6=Can't We Be Friends
TTITLE7=When Your Lover Has Gone
TTITLE8=What Is This Thing Called Love
TTITLE9=Last Night When We Were Young
TTITLE10=I'll Be Around
TTITLE11=Ill Wind
TTITLE12=It Never Entered My Mind
TTITLE13=Dancing On The Ceiling
TTITLE14=I'll Never Be The Same
TTITLE15=This Love Of Mine
EXTD=YEAR: 2007
EXTT0=
EXTT1=
EXTT2=
EXTT3=
EXTT4=
EXTT5=
EXTT6=
EXTT7=
EXTT8=
EXTT9=
EXTT10=
EXTT11=
EXTT12=
EXTT13=
EXTT14=
EXTT15=
PLAYORDER=
